<!DOCTYPE svg PUBLIC "-//W3C//DTD SVG 1.1//EN" "http://www.w3.org/Graphics/SVG/1.1/DTD/svg11.dtd">
<!-- Uploaded to: SVG Repo, www.svgrepo.com, Transformed by: SVG Repo Mixer Tools -->
<svg width="800px" height="800px" viewBox="-2.16 -2.16 28.32 28.32" xmlns="http://www.w3.org/2000/svg" xmlns:xlink="http://www.w3.org/1999/xlink" fill="#000000" transform="matrix(1, 0, 0, 1, 0, 0)rotate(0)" stroke="#000000" stroke-width="0.144">
<g id="SVGRepo_bgCarrier" stroke-width="0" transform="translate(3.6000000000000014,3.6000000000000014), scale(0.7)">
<path transform="translate(-2.16, -2.16), scale(1.77)" fill="#7ed0ec" d="M9.166.33a2.25 2.25 0 00-2.332 0l-5.25 3.182A2.25 2.25 0 00.5 5.436v5.128a2.25 2.25 0 001.084 1.924l5.25 3.182a2.25 2.25 0 002.332 0l5.25-3.182a2.25 2.25 0 001.084-1.924V5.436a2.25 2.25 0 00-1.084-1.924L9.166.33z" strokewidth="0"/>
</g>
<g id="SVGRepo_tracerCarrier" stroke-linecap="round" stroke-linejoin="round" stroke="#CCCCCC" stroke-width="0.048"/>
<g id="SVGRepo_iconCarrier"> <defs> <path id="check-a" d="M4.29289322,0.292893219 C4.68341751,-0.0976310729 5.31658249,-0.0976310729 5.70710678,0.292893219 C6.09763107,0.683417511 6.09763107,1.31658249 5.70710678,1.70710678 L1.90917969,5.46118164 C1.5186554,5.85170593 0.885490417,5.85170593 0.494966125,5.46118164 C0.104441833,5.07065735 0.104441833,4.43749237 0.494966125,4.04696808 L4.29289322,0.292893219 Z"/> <path id="check-c" d="M10.7071068,13.2928932 C11.0976311,13.6834175 11.0976311,14.3165825 10.7071068,14.7071068 C10.3165825,15.0976311 9.68341751,15.0976311 9.29289322,14.7071068 L0.292893219,5.70710678 C-0.0976310729,5.31658249 -0.0976310729,4.68341751 0.292893219,4.29289322 L4.29289322,0.292893219 C4.68341751,-0.0976310729 5.31658249,-0.0976310729 5.70710678,0.292893219 C6.09763107,0.683417511 6.09763107,1.31658249 5.70710678,1.70710678 L2.41421356,5 L10.7071068,13.2928932 Z"/> </defs> <g fill="none" fill-rule="evenodd" transform="rotate(-90 11 7)"> <g transform="translate(1 1)"> <mask id="check-b" fill="#ffffff"> <use xlink:href="#check-a"/> </mask> <use fill="#D8D8D8" fill-rule="nonzero" xlink:href="#check-a"/> <g fill="#e4b0e8" mask="url(#check-b)"> <rect width="24" height="24" transform="translate(-7 -5)"/> </g> </g> <mask id="check-d" fill="#ffffff"> <use xlink:href="#check-c"/> </mask> <use fill="#000000" fill-rule="nonzero" xlink:href="#check-c"/> <g fill="#3276c3" mask="url(#check-d)"> <rect width="24" height="24" transform="translate(-6 -4)"/> </g> </g> </g>
</svg>